<svg xmlns="http://www.w3.org/2000/svg" width="32" height="32" viewBox="0 0 150 150" fill="none">
  <path d="M146.341 69.0789C144.934 69.0789 139.587 71.0526 136.773 72.1805C136.492 71.0526 135.366 70.2068 133.959 70.2068C132.552 70.2068 131.144 71.0526 131.144 72.1805L125.797 71.3346C124.953 59.7744 120.45 49.6241 113.415 41.4474L116.51 36.9361C117.355 37.5 119.043 37.5 119.887 36.3722C121.013 35.2444 121.295 33.8346 120.45 32.9887C123.265 31.8609 128.612 29.6053 129.456 28.4774C130.582 27.0677 129.737 24.2481 127.767 21.9925C125.516 20.0188 122.702 19.1729 121.295 20.3008C120.169 21.1466 117.917 26.5038 116.792 29.3233C115.947 28.7594 114.259 29.0414 113.415 29.8872C112.289 31.015 112.008 32.4248 112.852 33.2707L108.349 36.3722C100.188 29.3233 89.7749 24.812 78.5178 23.9662L77.6736 18.609C78.7993 18.3271 79.6435 17.1992 79.6435 15.7895C79.6435 14.3797 78.7993 13.2519 77.6736 12.9699C78.7993 10.1504 80.7692 4.79323 80.7692 3.38346C80.4878 1.40977 77.955 0 74.8593 0C71.7636 0 69.2308 1.40977 68.9493 3.38346C68.9493 4.79323 70.9193 10.1504 72.045 12.9699C70.9193 13.2519 70.0751 14.3797 70.0751 15.7895C70.0751 17.1992 70.9193 18.609 72.045 18.609L71.2008 23.9662C59.6623 24.812 49.531 29.3233 41.3696 36.3722L36.8668 33.2707C37.4296 32.4248 37.4296 30.7331 36.3039 29.8872C35.1782 28.7594 33.7711 28.4774 32.9268 29.3233C31.8011 26.5038 29.5497 21.4286 28.424 20.3008C27.0169 19.1729 24.2026 20.0188 22.2326 22.2744C19.9812 24.2481 19.137 27.0677 20.2627 28.7594C21.1069 29.8872 26.454 32.1429 29.2683 33.2707C28.7054 34.1165 28.9869 35.8083 29.8311 36.6541C30.9569 37.782 32.364 38.0639 33.2083 37.2181L36.3039 41.7293C29.2683 49.906 24.7655 60.3383 23.9212 71.6165L18.5741 72.4624C18.2927 71.3346 17.167 70.4887 15.7599 70.4887C14.3527 70.4887 13.227 71.3346 12.9456 72.4624C10.1313 71.3346 4.78424 69.3609 3.37711 69.3609C1.40713 69.6429 0 72.1805 0 75.282C0 78.3835 1.40713 80.9211 3.37711 81.203C4.78424 81.203 10.1313 79.2293 12.9456 78.1015C13.227 79.2293 14.3527 80.0752 15.7599 80.0752C17.167 80.0752 18.5741 79.2293 18.5741 78.1015L23.9212 78.9474C24.7655 90.5075 29.2683 100.658 36.3039 108.835L33.4897 113.064C32.6454 112.5 30.9569 112.5 30.1126 113.628C28.9869 114.756 28.7054 116.165 29.5497 117.011C26.7355 118.139 21.6698 120.395 20.5441 121.523C19.4184 122.932 20.2627 125.752 22.2326 128.008C24.4841 130.263 27.2983 131.109 28.7054 129.699C29.8311 128.853 32.0826 123.496 33.2083 120.677C34.0525 121.241 35.7411 120.959 36.5854 120.113C37.7111 118.985 37.9925 117.575 37.1482 116.729L41.651 113.628C49.8124 120.677 60.2251 125.188 71.4822 126.034L72.3265 131.391C71.2008 131.673 70.3565 132.801 70.3565 134.211C70.3565 135.62 71.2008 136.748 72.3265 137.03C71.2008 139.85 69.2308 145.207 69.2308 146.617C69.5122 148.59 72.045 150 75.1407 150C78.2364 150 80.7692 148.59 81.0507 146.617C81.0507 145.207 79.0807 139.85 77.955 137.03C79.0807 136.748 79.925 135.62 79.925 134.211C79.925 132.801 79.0807 131.391 77.955 131.391L78.7993 126.034C90.3377 125.188 100.469 120.677 108.63 113.628L113.133 116.729C112.57 117.575 112.57 119.267 113.696 120.113C114.822 121.241 116.229 121.523 117.073 120.677C118.199 123.496 120.45 128.853 121.576 129.699C122.983 130.827 125.797 129.981 128.049 128.008C130.3 125.752 131.144 122.932 129.737 121.523C128.893 120.395 123.546 118.139 120.732 117.011C121.295 116.165 121.013 114.474 120.169 113.628C119.043 112.5 117.636 112.218 116.792 113.064L113.696 108.553C120.732 100.376 125.235 89.9436 126.079 78.6654L131.426 77.8196C131.707 78.9474 132.833 79.7932 134.24 79.7932C135.647 79.7932 136.773 78.9474 137.054 77.8196C139.869 78.9474 145.216 80.9211 146.623 80.9211C148.593 80.6391 150 78.1015 150 75C149.437 72.1805 148.03 69.3609 146.341 69.0789Z" fill="#FFD600"/>
</svg>
